<svg id="Layer_1" data-name="Layer 1" xmlns="http://www.w3.org/2000/svg" viewBox="0 0 384 384"><defs><style>.cls-1{fill:#00b48a;}</style></defs><path class="cls-1" d="M0,321V63a28.26,28.26,0,0,0,1.11-3.33Q9.36,19,48.14,4.2C52.94,2.39,58,1.38,63,0H320.25a9.87,9.87,0,0,0,1.88.76c28,4.87,47.32,20.46,57.5,47,2,5.12,2.94,10.62,4.37,16V321a28.26,28.26,0,0,0-1.11,3.33c-5.5,27.12-21.15,45.69-47,55.45-5,1.89-10.4,2.84-15.61,4.22H63a28.26,28.26,0,0,0-3.33-1.11c-27.13-5.5-45.68-21.16-55.47-47C2.39,331.06,1.38,326,0,321ZM234,208.57V110.43c0-5.09-1-6.1-6.13-6.11-10.87,0-21.75.17-32.62-.09-4-.09-6.36,1.3-8.53,4.62-19.56,30-38.82,60.23-59.17,89.69-7.8,11.29-12,22.54-10.38,36.11.59,5.07,1.09,6.09,6.25,6.09h72.33v38.32c0,4.53.93,5.49,5.52,5.51q13.5.06,27,0c4.8,0,5.72-1,5.73-5.7V244c0-1.07.12-2.14.18-3.27H251c4.13,0,5.33-1.22,5.35-5.38q.07-10.69,0-21.37c0-4.14-1.25-5.37-5.36-5.4C245.53,208.53,240,208.57,234,208.57Z"/><path class="cls-1" d="M195.71,208.34H159.53c12.27-18.85,24.38-37.44,36.18-55.58Z"/></svg>